PathFileType	4	(X/Y/Z)	C:\Users\WrightLab\Desktop\Jo\P1.2Trial7.trc
DataRate	CameraRate	NumFrames	NumMarkers	Units	OrigDataRate	OrigDataStartFrame	OrigNumFrames
100.00	100.00	       30	19	mm	100.00	68	       539
Frame#	Time	Headset_Front			Headset_Back			Headset_Left			Headset_Right			Left_Shoulder			Right_Shoulder			Sternum			C7			Left Elbow			Right Elbow			Left Wrist			Right Wrist			Left ASIS			Right ASIS			S2			Left Knee			Right Knee			Left Ankle			Right Ankle			
		X1	Y1	Z1	X2	Y2	Z2	X3	Y3	Z3	X4	Y4	Z4	X5	Y5	Z5	X6	Y6	Z6	X7	Y7	Z7	X8	Y8	Z8	X9	Y9	Z9	X10	Y10	Z10	X11	Y11	Z11	X12	Y12	Z12	X13	Y13	Z13	X14	Y14	Z14	X15	Y15	Z15	X16	Y16	Z16	X17	Y17	Z17	X18	Y18	Z18	X19	Y19	Z19	

68	0.670													-64.76698	1194.37573	-1485.48669										19.58487	911.13611	-1527.74866				15.87219	691.88965	-1420.23499				-141.47894	810.44897	-1427.43018										-493.17813	426.01196	-1436.48010	-55.31767	50.13725	-1710.08594	-584.28381	122.07056	-1371.72595	
69	0.680													-70.13826	1193.36121	-1479.14294										16.03835	911.29724	-1524.95703				12.15438	691.57764	-1413.97925				-146.04082	807.69489	-1425.95142										-498.52515	426.34369	-1430.80493	-55.53875	51.10999	-1708.14502	-589.70062	121.75998	-1366.68665	
70	0.690													-75.70306	1193.86438	-1476.32202										11.57456	909.85400	-1519.05286				7.55630	691.49164	-1405.85718				-149.35796	807.34418	-1421.35767										-502.95670	426.58829	-1420.89124	-56.42759	51.48392	-1706.87988	-596.28998	120.70502	-1360.75366	
71	0.700													-81.20293	1191.28467	-1466.65991										6.41554	909.36591	-1514.31592				3.57790	690.67609	-1400.49463				-153.86356	807.20599	-1409.23816										-509.00409	422.64835	-1419.69922	-56.70903	52.66478	-1704.54004	-600.38129	118.76026	-1358.46851	
72	0.710													-87.48294	1192.37915	-1465.24768										0.63699	908.64978	-1507.09570				-0.60731	690.32410	-1394.87537				-160.04700	806.46960	-1406.91357										-515.16974	422.30042	-1410.82507	-57.41288	54.40433	-1702.88318	-605.80328	115.36398	-1355.87793	
73	0.720													-93.32748	1191.32874	-1459.06763										-5.21541	907.88293	-1500.24988				-5.10971	690.07983	-1388.97705				-165.06161	804.68109	-1399.17297										-520.48926	420.00180	-1405.46082	-58.36966	57.06453	-1701.52441	-609.69037	112.83096	-1351.67676	
74	0.730				-323.77509	1106.78955	-1390.50024							-99.28499	1190.31055	-1452.76892										-9.94034	908.09796	-1496.62695				-9.02351	689.21216	-1384.47644				-170.75893	805.74353	-1389.61414										-526.27698	417.38071	-1401.72534	-59.03893	57.99148	-1700.14880	-613.28613	110.47564	-1346.13062	
75	0.740				-330.00641	1106.91113	-1377.33813							-105.41958	1189.35913	-1446.20801										-16.89079	906.32959	-1486.63818				-14.06911	688.48114	-1376.98267				-176.87804	802.90417	-1388.05151										-531.65649	414.90723	-1391.93347	-61.53640	59.38923	-1697.45227	-616.72321	104.15617	-1347.49133	
76	0.750				-337.82809	1105.44470	-1376.29602							-111.71828	1188.36243	-1439.88879										-21.79694	906.56573	-1483.53564				-18.86050	688.00842	-1371.87866				-182.94096	802.69812	-1376.07031										-536.16742	413.27335	-1388.69531	-62.18880	61.41441	-1695.48474	-620.50134	99.61999	-1346.17554	
77	0.760				-343.43860	1104.65430	-1370.13672							-118.72948	1186.71960	-1431.77161										-28.67441	905.48090	-1475.41370				-23.99746	687.66016	-1366.06128				-189.92122	801.39624	-1374.49487										-541.62915	409.38510	-1381.91333	-62.59982	63.31915	-1693.53821	-623.41132	97.55280	-1343.96118	
78	0.770				-351.69354	1104.11145	-1361.34192	-487.95450	1346.92908	-1366.56787				-126.29919	1186.39221	-1426.27466										-34.32095	905.32123	-1471.96265				-28.90634	687.03522	-1360.66077				-197.67700	800.59650	-1365.21484										-546.49829	408.04016	-1372.00330	-63.66950	66.43510	-1690.94763	-626.97534	93.29204	-1343.64966	
79	0.780				-360.57520	1103.95593	-1356.10681	-494.84439	1346.35242	-1359.27087				-133.87457	1186.19214	-1420.75098										-41.23512	904.32202	-1464.24622				-34.61980	686.64551	-1353.16199				-205.64815	802.00555	-1353.25293										-552.19189	404.20645	-1374.70935	-64.23982	70.81126	-1688.63428	-630.41602	91.50694	-1339.77588	
80	0.790				-366.43417	1104.40918	-1349.20276	-501.37442	1347.84595	-1357.22949				-140.60440	1185.40918	-1413.69556										-47.86683	904.46753	-1459.33374				-39.77896	686.53412	-1347.96826				-213.49046	798.47137	-1354.17334										-558.67535	405.31357	-1360.69617	-65.51974	72.82272	-1683.54944	-633.36798	88.48943	-1336.08557	
81	0.800				-375.03162	1104.75793	-1340.60620	-508.82510	1347.56018	-1348.59326				-148.74542	1186.24731	-1409.48315										-55.40547	903.96484	-1452.09985				-45.75201	686.56189	-1341.05444				-222.81020	800.79034	-1342.02722										-565.62878	405.48108	-1356.31335	-67.38624	75.40522	-1678.69873	-635.34192	84.61045	-1333.24219	
82	0.810				-383.39087	1104.15869	-1339.33105	-516.32129	1347.35742	-1339.72815				-156.37294	1184.66638	-1399.00696										-64.12896	904.00073	-1443.88245				-50.65831	686.97406	-1336.53369				-229.86481	800.27661	-1333.78857										-571.08563	402.58054	-1355.75830	-66.91605	79.85764	-1674.87231	-637.85187	83.21128	-1326.98218	
83	0.820				-391.93854	1104.52649	-1332.63647	-522.99255	1349.21021	-1336.63257				-163.61369	1186.33386	-1395.47473										-70.17651	905.14099	-1442.32031				-57.29093	687.63000	-1329.35840				-240.70195	801.59576	-1326.07629										-577.87927	406.58765	-1339.19617	-67.35377	85.61076	-1670.74451	-640.67902	82.07590	-1322.33154	
84	0.830				-399.33582	1106.85046	-1321.21094	-531.05463	1349.22571	-1326.64807				-171.76326	1186.90454	-1388.04761										-78.99722	905.84595	-1434.55347				-62.61586	688.68732	-1323.23022				-250.00346	800.18494	-1322.68665										-584.49371	406.83527	-1334.48840	-69.56612	89.21507	-1663.80798	-644.23822	79.84734	-1320.81897	
85	0.840				-408.75388	1109.52136	-1311.14917	-538.05627	1352.04333	-1324.69153				-179.49521	1186.42761	-1377.38147										-88.07474	906.84485	-1427.64941				-68.68494	689.64380	-1318.70874				-259.94568	801.60284	-1316.20801										-590.43591	408.97083	-1324.54260	-70.64243	94.07922	-1657.51941	-647.23541	78.03387	-1316.77991	
86	0.850				-416.52518	1109.60901	-1312.45178	-545.01196	1352.51465	-1316.58337				-187.77864	1188.73853	-1372.44739										-95.66541	907.89771	-1423.51563				-74.48798	691.53650	-1311.85669				-269.10675	805.19525	-1303.58716										-596.93225	409.34424	-1319.67285	-72.41074	99.74104	-1650.46021	-650.12964	77.45942	-1313.37964	
87	0.860				-425.94495	1109.83472	-1306.29346	-552.98523	1355.41919	-1313.28064				-196.01572	1191.08154	-1367.36804										-104.96369	909.94147	-1416.59155	-553.28827	786.50647	-1369.81995	-80.22482	693.18445	-1308.23584				-278.96576	807.00128	-1291.65771										-603.09808	406.98828	-1320.59082	-74.78455	105.13534	-1642.33691	-652.91980	75.77650	-1307.70532	
88	0.870				-434.55304	1112.85095	-1295.20825	-559.98413	1355.55359	-1303.91479				-203.73853	1191.98633	-1358.31921										-111.45148	911.35242	-1415.93372	-562.28680	788.15247	-1365.09766	-86.56736	695.65576	-1302.08557				-287.53549	806.35077	-1289.70825										-609.93176	406.86880	-1316.09155	-77.37595	110.39745	-1633.24243	-655.57220	72.74377	-1308.06091	
89	0.880	-489.06015	1312.76733	-1178.38379	-442.13614	1114.41223	-1286.69409	-566.58112	1357.63086	-1300.18103				-211.48399	1193.13806	-1349.86719										-121.63367	913.46045	-1407.71130	-570.41870	789.31042	-1359.29456	-93.44560	696.88257	-1294.98975				-297.61090	807.97003	-1282.42249							-214.20261	371.36206	-1376.88037	-616.08990	408.51535	-1310.65613	-79.37964	115.41385	-1623.61316	-657.47711	70.70431	-1305.82825	
90	0.890	-496.16116	1314.59863	-1172.54993	-450.40186	1115.20386	-1284.19250	-574.82788	1358.60034	-1291.09558				-218.67589	1194.60510	-1342.24060	-630.45343	1176.38647	-1440.58997							-129.34856	914.60004	-1403.94238	-579.18073	792.51727	-1350.14563	-99.93045	698.97101	-1289.23926				-308.18802	809.19830	-1274.85889							-219.65331	374.60205	-1360.10510	-621.40704	406.55286	-1310.28027	-83.33115	120.08778	-1612.83911	-658.96832	66.86113	-1307.11597	
91	0.900	-503.76791	1316.45776	-1166.88647	-459.35602	1117.54089	-1279.35938							-226.14146	1196.45032	-1335.53625										-138.99187	917.40790	-1396.47424	-586.62360	793.61523	-1348.95471	-105.85187	700.86646	-1285.39893				-318.27206	811.51129	-1267.45557							-226.46442	378.23843	-1339.51990	-627.61243	407.37207	-1303.17590	-88.12080	124.85661	-1601.35022	-660.13348	64.83060	-1303.53381	
92	0.910	-510.07513	1317.84399	-1161.21765	-465.86658	1119.53247	-1274.79883				-588.34143	1362.01782	-1280.41199	-233.77547	1198.86792	-1329.95752	-735.54962	670.86530	-1455.38147							-146.52681	918.27155	-1391.10999	-594.37439	793.60388	-1344.07056	-114.05620	701.97137	-1278.81152				-326.51205	812.77954	-1261.09668							-232.23009	378.52136	-1329.68396	-633.15820	407.35941	-1302.43958	-94.67300	128.73929	-1589.52087	-660.79565	64.19997	-1302.40454	
93	0.920	-517.62054	1319.88123	-1154.98364	-473.18604	1122.08484	-1262.31677				-595.68689	1364.06018	-1275.35242	-240.27086	1200.98413	-1324.77075										-153.75171	919.35449	-1386.10828	-602.03717	796.13806	-1334.16797	-121.40958	703.29877	-1273.27112				-335.39047	814.32874	-1249.73914							-238.58896	382.88541	-1307.55029	-637.67010	405.89676	-1302.65857	-100.46496	132.41817	-1577.81934	-661.67841	63.23602	-1302.20093	
94	0.930	-523.99585	1321.53271	-1148.97937	-481.22903	1123.48584	-1260.98767	-658.24542	1182.75354	-1414.05725	-602.63159	1365.33618	-1268.60657	-247.57144	1202.45764	-1317.65149										-162.46199	921.28027	-1377.80054	-609.35406	798.00482	-1328.33960	-129.06837	705.10590	-1267.20422				-343.04129	814.52350	-1245.41162							-247.11366	384.17883	-1291.25183	-642.58643	405.57166	-1299.09326	-109.14921	134.50935	-1563.78040	-662.72870	62.04624	-1299.57751	
95	0.940	-529.63184	1322.58594	-1143.18762	-486.49609	1125.49512	-1252.58093				-608.76306	1367.34216	-1264.71692	-254.14497	1203.41528	-1309.58728	-762.05347	678.78278	-1425.59692							-168.14246	923.33844	-1373.63281	-617.34546	799.93011	-1321.63940	-136.83250	706.74823	-1262.36670				-352.73663	816.53943	-1241.08020							-256.20749	382.85526	-1281.82117	-646.62195	405.25989	-1295.83679	-116.34474	138.50211	-1555.02002	-663.19904	60.30692	-1300.00208	
96	0.950	-536.78149	1324.32690	-1136.63965	-493.42783	1127.21655	-1246.41418				-616.58746	1368.27185	-1255.13306	-260.29639	1204.80823	-1302.96387	-770.54797	680.58435	-1414.10168							-175.22180	923.95526	-1365.45288	-623.71576	801.13477	-1314.94958	-145.56760	707.87250	-1256.62952				-357.93423	819.26282	-1229.72949							-265.26157	383.20798	-1264.54492	-650.62195	402.45148	-1300.58472	-125.91677	143.45828	-1542.94897	-663.65643	57.20406	-1301.84863	
97	0.960	-542.49390	1325.95300	-1130.57910							-622.55127	1370.34607	-1250.83484	-266.32443	1206.35083	-1296.57568										-181.32603	925.23383	-1359.31714	-630.45300	802.15118	-1309.58582	-154.22169	708.93799	-1248.30908				-364.50070	822.14203	-1220.80615							-275.11389	383.05768	-1246.42590	-653.92920	402.21292	-1298.28748	-134.36998	148.92566	-1531.60315	-664.67340	56.85483	-1301.32166	
